<svg width="51" height="50" viewBox="0 0 51 50" fill="none" xmlns="http://www.w3.org/2000/svg">
<path d="M32.1081 14.5833L18.3873 28.3042C17.9893 28.6885 17.6719 29.1483 17.4535 29.6566C17.2351 30.165 17.1202 30.7117 17.1154 31.265C17.1106 31.8182 17.216 32.3669 17.4255 32.879C17.635 33.391 17.9444 33.8562 18.3356 34.2475C18.7268 34.6387 19.192 34.9481 19.7041 35.1576C20.2162 35.3671 20.7648 35.4725 21.3181 35.4677C21.8713 35.4629 22.4181 35.3479 22.9264 35.1296C23.4348 34.9112 23.8946 34.5938 24.2789 34.1958L37.6414 20.475C39.1594 18.9033 39.9994 16.7983 39.9804 14.6133C39.9614 12.4283 39.085 10.3382 37.5399 8.79316C35.9948 7.2481 33.9047 6.37169 31.7198 6.3527C29.5348 6.33371 27.4298 7.17367 25.8581 8.69165L12.4935 22.4104C10.1491 24.7548 8.83203 27.9345 8.83203 31.25C8.83203 34.5655 10.1491 37.7452 12.4935 40.0896C14.8379 42.434 18.0176 43.751 21.3331 43.751C24.6486 43.751 27.8283 42.434 30.1727 40.0896L43.2081 27.0833" stroke="white" stroke-width="5" stroke-linecap="round" stroke-linejoin="round"/>
</svg>
