<svg width="81" height="80" viewBox="0 0 81 80" fill="none" xmlns="http://www.w3.org/2000/svg">
<rect x="0.5" width="80" height="80" rx="40" fill="#B0B0B0"/>
<path fill-rule="evenodd" clip-rule="evenodd" d="M29.8889 26.1111C29.8889 23.1643 31.0595 20.3381 33.1433 18.2544C35.227 16.1706 38.0532 15 41 15C43.9468 15 46.773 16.1706 48.8567 18.2544C50.9405 20.3381 52.1111 23.1643 52.1111 26.1111C52.1111 29.058 50.9405 31.8841 48.8567 33.9679C46.773 36.0516 43.9468 37.2222 41 37.2222C38.0532 37.2222 35.227 36.0516 33.1433 33.9679C31.0595 31.8841 29.8889 29.058 29.8889 26.1111ZM29.8889 42.7778C26.2053 42.7778 22.6726 44.2411 20.068 46.8457C17.4633 49.4504 16 52.9831 16 56.6667C16 58.8768 16.878 60.9964 18.4408 62.5592C20.0036 64.122 22.1232 65 24.3333 65H57.6667C59.8768 65 61.9964 64.122 63.5592 62.5592C65.122 60.9964 66 58.8768 66 56.6667C66 52.9831 64.5367 49.4504 61.932 46.8457C59.3274 44.2411 55.7947 42.7778 52.1111 42.7778H29.8889Z" fill="white"/>
</svg>
