<svg width="41" height="40" viewBox="0 0 41 40" fill="none" xmlns="http://www.w3.org/2000/svg">
<path fill-rule="evenodd" clip-rule="evenodd" d="M28.1193 31.4285V20C28.1193 18.9896 27.718 18.0206 27.0035 17.3062C26.2891 16.5918 25.3202 16.1904 24.3098 16.1904H7.16695C6.1566 16.1904 5.18763 16.5918 4.47321 17.3062C3.75878 18.0206 3.35742 18.9896 3.35742 20V31.4285C3.35742 32.4389 3.75878 33.4078 4.47321 34.1223C5.18763 34.8367 6.1566 35.238 7.16695 35.238H24.3098C25.3202 35.238 26.2891 34.8367 27.0035 34.1223C27.718 33.4078 28.1193 32.4389 28.1193 31.4285Z" stroke="white" stroke-linecap="round" stroke-linejoin="round"/>
<path d="M31.9284 31.4285V18.1047C31.9284 16.5891 31.3264 15.1357 30.2548 14.0641C29.1831 12.9924 27.7297 12.3904 26.2141 12.3904H26.2046L9.07129 12.4209" stroke="white" stroke-linecap="round" stroke-linejoin="round"/>
<path d="M35.738 27.619V16.2038C35.738 14.1831 34.9353 12.2451 33.5064 10.8163C32.0776 9.38744 30.1397 8.58472 28.119 8.58472H28.1056L12.8809 8.60948" stroke="white" stroke-linecap="round" stroke-linejoin="round"/>
</svg>
